<svg width="17" height="17" viewBox="0 0 17 17" fill="none" xmlns="http://www.w3.org/2000/svg">
<path d="M15.3194 15.2948C13.4639 12.5873 11.6068 9.88082 9.75043 7.17394C9.7262 7.13867 9.70396 7.10196 9.67376 7.05512C9.99891 6.67607 10.3224 6.29865 10.6463 5.92141C12.3296 3.96087 14.0131 2.00014 15.6964 0.0394242C15.7069 0.0271267 15.7152 0.0132017 15.7246 0H14.2951C12.5479 2.03451 10.8006 4.06919 9.02561 6.13607C9.00427 6.09755 8.98908 6.06445 8.96882 6.03498C7.60579 4.04677 6.2424 2.05892 4.87938 0.0707104C4.86437 0.0486473 4.8537 0.0236907 4.84086 0H0C0.041956 0.0687211 0.0806568 0.139612 0.126049 0.205802C2.17195 3.1901 4.21839 6.17405 6.26483 9.15817C6.28617 9.18927 6.3066 9.2211 6.33644 9.26613C6.17025 9.46108 6.00315 9.65802 5.83478 9.85406C3.93229 12.0696 2.02962 14.2849 0.127315 16.5007C0.0821036 16.5535 0.0423177 16.6111 0 16.6667H1.42958C2.077 15.9091 2.72316 15.1505 3.37185 14.394C4.5251 13.049 5.67998 11.7052 6.83413 10.3611C6.87627 10.312 6.91967 10.264 6.96994 10.2067C7.0025 10.2461 7.03143 10.2765 7.05494 10.3107C8.48579 12.3967 9.91627 14.483 11.3466 16.5696C11.3677 16.6005 11.3847 16.6343 11.4037 16.6667H16.2444C15.9362 16.2093 15.6311 15.7498 15.3194 15.2948ZM14.101 15.6306C13.484 15.6312 12.8669 15.6279 12.2499 15.6337C12.1351 15.6346 12.0643 15.6019 11.9973 15.5058C8.68309 10.751 5.36621 5.9979 2.04988 1.24457C2.01931 1.20081 1.99146 1.15506 1.94264 1.08019C2.54792 1.08019 3.12156 1.10297 3.69231 1.07151C4.02995 1.05288 4.21604 1.17169 4.40719 1.44694C7.64558 6.1093 10.8968 10.7628 14.1451 15.4183C14.1873 15.4787 14.228 15.54 14.2833 15.621C14.2039 15.6254 14.1526 15.6304 14.101 15.6306Z" fill="white"/>
</svg>
