<svg width="14" height="17" viewBox="0 0 14 17" fill="none" xmlns="http://www.w3.org/2000/svg">
<path d="M13.1034 5.61292C13.1082 6.88656 12.8787 8.11633 12.3164 9.26713C11.7056 10.5165 10.8005 11.4763 9.47489 11.9615C8.46516 12.3321 7.43315 12.4232 6.42342 11.9399C6.15749 11.8131 5.91653 11.6349 5.65195 11.4722C5.56623 11.8016 5.47241 12.1431 5.38939 12.4873C5.16395 13.4262 4.89262 14.3495 4.47415 15.2243C4.26761 15.6556 4.04555 16.0781 3.68918 16.4095C3.62236 16.4716 3.54609 16.5256 3.46712 16.5728C3.16406 16.7531 2.86303 16.6694 2.69902 16.3589C2.53231 16.043 2.49991 15.6974 2.49046 15.3491C2.45941 14.1572 2.67607 12.999 2.95888 11.8475C3.27813 10.5489 3.57916 9.24486 3.88222 7.94219C3.90246 7.85445 3.89234 7.74983 3.86467 7.66276C3.53529 6.62266 3.50964 5.6028 4.07728 4.63087C4.38978 4.0963 4.8393 3.73452 5.47038 3.63531C6.36065 3.49492 7.1463 4.1368 7.21177 5.03584C7.25969 5.68582 7.0761 6.29125 6.90534 6.90141C6.74672 7.46432 6.57461 8.02319 6.41667 8.5861C6.32893 8.8986 6.33703 9.21043 6.50374 9.49999C6.7879 9.99136 7.24281 10.1513 7.77535 10.1034C8.40036 10.0481 8.85731 9.69033 9.22516 9.20908C9.6956 8.59352 9.95613 7.88482 10.1127 7.13495C10.2707 6.37697 10.3537 5.61225 10.2416 4.84078C10.0614 3.59548 9.36622 2.75112 8.17695 2.36504C6.97688 1.97559 5.77749 2.03094 4.63546 2.59858C3.45159 3.18646 2.75167 4.1665 2.46346 5.44284C2.31767 6.09147 2.29067 6.74752 2.55795 7.37658C2.65177 7.59729 2.78946 7.80518 2.93593 7.99754C3.11074 8.22635 3.18161 8.46056 3.10399 8.74066C3.03852 8.97555 2.98655 9.21381 2.91905 9.44802C2.78676 9.91104 2.45604 10.0629 2.01867 9.86784C1.15067 9.48109 0.61071 8.79601 0.311705 7.92059C-0.175613 6.49576 -0.0905682 5.08578 0.560088 3.73115C1.5165 1.74138 3.13706 0.60206 5.27465 0.163339C5.6074 0.0951686 5.95028 0.0722202 6.28843 0.0269982C6.32488 0.0222735 6.36065 0.00944937 6.39642 0H7.30829C7.49052 0.0215986 7.67276 0.0411722 7.855 0.0654706C9.40807 0.267957 10.7411 0.909164 11.7738 2.10113C12.6418 3.10344 13.0994 4.27921 13.1034 5.61292Z" fill="white"/>
</svg>
