<svg width="17" height="17" viewBox="0 0 17 17" fill="none" xmlns="http://www.w3.org/2000/svg">
<path d="M16.6633 4.64313C16.6519 2.84681 15.851 1.48378 14.3012 0.576448C13.6193 0.176995 12.8657 0.00417064 12.0753 0.00376304C9.58036 0.00172501 7.0854 -0.00438907 4.59045 0.00539346C2.55976 0.013138 0.863308 1.25267 0.220922 3.18838C0.126358 3.47371 0.0917112 3.77941 0.0297552 4.07574C0.0187498 4.12832 0.00978253 4.18131 0 4.23389V12.4357C0.0448366 12.6852 0.0692929 12.9403 0.137363 13.1833C0.654207 15.0281 1.85297 16.1612 3.72184 16.5835C3.88937 16.6214 4.06179 16.6394 4.23176 16.6667H12.4352C12.6851 16.6218 12.9402 16.5974 13.1836 16.5293C15.0264 16.0133 16.1628 14.8165 16.5785 12.9497C16.6454 12.6509 16.6625 12.3363 16.6633 12.0289C16.6698 9.567 16.6788 7.10506 16.6633 4.64313ZM8.34083 12.902C5.83161 12.9163 3.76424 10.8522 3.76546 8.33399C3.76668 5.81825 5.80022 3.78186 8.32615 3.76759C10.8354 3.75332 12.9027 5.81703 12.9015 8.33522C12.9003 10.851 10.8668 12.8874 8.34083 12.902ZM13.1771 4.87994C12.423 4.8775 11.7888 4.24245 11.7892 3.49001C11.7892 2.73513 12.4214 2.10578 13.1791 2.1066C13.9409 2.10701 14.565 2.73187 14.5629 3.49246C14.5613 4.2506 13.9303 4.88239 13.1771 4.87994Z" fill="white"/>
<path d="M0 12.436C0.0448366 12.6855 0.0692929 12.9407 0.137363 13.1836C0.654207 15.0284 1.85297 16.1615 3.72184 16.5838C3.88937 16.6217 4.06179 16.6397 4.23176 16.667C2.82104 16.667 1.41031 16.667 0 16.667C0 15.2567 0 13.8463 0 12.436Z" fill="white"/>
<path d="M11.9174 8.34263C11.9108 10.3244 10.2935 11.9308 8.3182 11.9177C6.33968 11.9047 4.7435 10.2987 4.75002 8.32714C4.75654 6.34577 6.37433 4.73859 8.34958 4.75204C10.3281 4.76508 11.9239 6.37105 11.9174 8.34263Z" fill="white"/>
<path d="M13.578 3.48917C13.5788 3.70846 13.3934 3.89514 13.1765 3.89392C12.9617 3.89269 12.7722 3.69949 12.7754 3.48509C12.7791 3.27436 12.9601 3.0942 13.172 3.09134C13.3942 3.08849 13.5772 3.26784 13.578 3.48917Z" fill="white"/>
</svg>
