<svg width="27" height="27" viewBox="0 0 27 27" fill="none" xmlns="http://www.w3.org/2000/svg">
<path d="M12.375 2.25C10.8832 2.25 9.45242 2.84263 8.39752 3.89752C7.34263 4.95242 6.75 6.38316 6.75 7.875C6.75 9.36684 7.34263 10.7976 8.39752 11.8525C9.45242 12.9074 10.8832 13.5 12.375 13.5C13.8668 13.5 15.2976 12.9074 16.3525 11.8525C17.4074 10.7976 18 9.36684 18 7.875C18 6.38316 17.4074 4.95242 16.3525 3.89752C15.2976 2.84263 13.8668 2.25 12.375 2.25ZM12.375 14.625C9.68062 14.625 7.22813 15.4058 5.42475 16.506C4.52475 17.055 3.75525 17.703 3.1995 18.4072C2.65275 19.098 2.25 19.9271 2.25 20.8125C2.25 21.7631 2.71238 22.5124 3.37838 23.0467C4.00838 23.553 4.83975 23.8882 5.72287 24.1222C7.49812 24.5914 9.86737 24.75 12.375 24.75L13.1456 24.7444C13.334 24.7418 13.5188 24.6919 13.6829 24.5993C13.847 24.5068 13.9853 24.3744 14.0849 24.2145C14.1846 24.0546 14.2425 23.8722 14.2533 23.6841C14.2641 23.496 14.2275 23.3082 14.1469 23.1379C13.7203 22.235 13.4993 21.2486 13.5 20.25C13.5 18.8415 13.9309 17.5365 14.6666 16.4554C14.776 16.2947 14.8419 16.1085 14.8578 15.9148C14.8738 15.7211 14.8393 15.5265 14.7577 15.3501C14.6762 15.1737 14.5503 15.0215 14.3924 14.9082C14.2344 14.7949 14.0499 14.7245 13.8566 14.7037C13.3721 14.6512 12.8783 14.625 12.375 14.625ZM20.6055 15.8074C20.3747 15.7305 20.1253 15.7305 19.8945 15.8074L16.5195 16.9324C16.2954 17.007 16.1005 17.1503 15.9624 17.3419C15.8242 17.5336 15.7499 17.7638 15.75 18V19.8799C15.7498 21.0832 16.1934 22.2443 16.9959 23.141C17.7983 24.0377 18.9033 24.607 20.0992 24.7399C20.2005 24.7511 20.301 24.7511 20.4008 24.7399C21.5967 24.607 22.7017 24.0377 23.5041 23.141C24.3066 22.2443 24.7502 21.0832 24.75 19.8799V18C24.7501 17.7638 24.6758 17.5336 24.5376 17.3419C24.3995 17.1503 24.2046 17.007 23.9805 16.9324L20.6055 15.8074Z" fill="white"/>
</svg>
