<svg width="334" height="151" viewBox="0 0 334 151" fill="none" xmlns="http://www.w3.org/2000/svg">
<path d="M188.911 6.07633C198.242 -5.66892 217.153 0.72896 217.436 15.7269L219.184 108.278C219.311 115.027 223.66 120.969 230.053 123.132L322.521 154.416C337.571 159.508 336.801 181.051 321.426 185.056L233.329 208.002C226.172 209.866 221.225 216.393 221.365 223.787L223.023 311.578C223.313 326.942 203.885 333.841 194.42 321.734L133.603 243.939C129.675 238.915 123.137 236.703 116.965 238.31L21.4072 263.2C6.5364 267.073 -4.71231 249.796 4.84659 237.764L59.4658 169.013C64.0664 163.222 64.0985 155.033 59.5433 149.206L3.47449 77.4854C-6.31102 64.9683 6.15718 47.3831 21.2074 52.475L113.675 83.7588C120.068 85.9219 127.132 83.8402 131.33 78.5554L188.911 6.07633Z" fill="white"/>
</svg>
