<svg width="351" height="259" viewBox="0 0 351 259" fill="none" xmlns="http://www.w3.org/2000/svg">
<path d="M160.018 -41.1183C165.093 -55.2345 185.056 -55.2345 190.131 -41.1183L221.448 45.9914C223.731 52.343 229.755 56.5786 236.504 56.5786H334.12C350.008 56.5786 356.183 77.232 342.902 85.9529L266.806 135.922C260.624 139.981 258.03 147.749 260.532 154.709L290.237 237.338C295.436 251.798 279.243 264.56 266.398 256.125L183.857 201.924C178.525 198.423 171.624 198.423 166.292 201.924L83.7513 256.125C70.9062 264.56 54.7137 251.798 59.9125 237.338L89.6177 154.709C92.1198 147.749 89.5256 139.981 83.3434 135.922L7.24704 85.9529C-6.03381 77.232 0.141113 56.5786 16.0293 56.5786H113.645C120.395 56.5786 126.419 52.343 128.702 45.9915L160.018 -41.1183Z" fill="white"/>
</svg>
