<svg width="28" height="28" viewBox="0 0 28 28" fill="none" xmlns="http://www.w3.org/2000/svg">
<path d="M23.4698 8.89564C23.2438 8.86954 23.0151 8.91009 22.8118 9.01231L17.5 11.6665V16.3331L22.8118 18.9873C22.9895 19.0761 23.1868 19.118 23.3852 19.1092C23.5836 19.1004 23.7765 19.041 23.9455 18.9368C24.1146 18.8326 24.2543 18.687 24.3513 18.5137C24.4483 18.3404 24.4995 18.1452 24.5 17.9466V10.053C24.4997 9.76742 24.3946 9.4919 24.2048 9.27861C24.0149 9.06531 23.7534 8.92905 23.4698 8.89564Z" fill="white"/>
<path d="M5.8335 5.83325C3.91433 5.83325 2.3335 7.41409 2.3335 9.33325V18.6666C2.3335 20.5858 3.91433 22.1666 5.8335 22.1666H15.1668C17.086 22.1666 18.6668 20.5858 18.6668 18.6666V9.33325C18.6668 7.41409 17.086 5.83325 15.1668 5.83325H5.8335Z" fill="white"/>
</svg>
