<svg width="27" height="27" viewBox="0 0 27 27" fill="none" xmlns="http://www.w3.org/2000/svg">
<path d="M18.0359 15.2719C18.073 15.1358 18.0854 14.9873 18.0854 14.8264V13.9231C18.0854 13.7993 18.073 13.6508 18.0482 13.5271C17.9121 12.9331 17.4295 12.4504 16.7365 12.4504C15.7577 12.4504 15.2144 13.3167 15.2144 14.4428C15.2144 15.5442 15.7589 16.3486 16.7241 16.3486C17.3429 16.3486 17.8874 15.9278 18.0359 15.2719Z" fill="white"/>
<path fill-rule="evenodd" clip-rule="evenodd" d="M7.61644 3.46724C11.527 3.03403 15.4734 3.03403 19.3839 3.46724C21.5203 3.70574 23.2427 5.38761 23.4936 7.53186C23.957 11.4971 23.957 15.5029 23.4936 19.4681C23.2427 21.6124 21.5203 23.2942 19.3851 23.5339C15.4742 23.9671 11.5274 23.9671 7.61644 23.5339C5.48007 23.2942 3.75769 21.6124 3.50682 19.4692C3.0433 15.5036 3.0433 11.4975 3.50682 7.53186C3.75769 5.38761 5.48007 3.70574 7.61644 3.46724ZM18.0857 12.0667V8.65124H19.6078V15.7421C19.6078 16.3609 19.6326 17.0291 19.6573 17.4375H18.2961L18.2342 16.4846H18.2094C17.8494 17.1529 17.1204 17.5736 16.2407 17.5736C14.8063 17.5736 13.6678 16.3485 13.6678 14.4922C13.6554 12.4751 14.9166 11.2747 16.3656 11.2747C17.1947 11.2747 17.7887 11.6212 18.0609 12.0667H18.0857ZM11.1422 13.1681L13.6791 17.4375H11.9218L11.0184 15.7792C10.7268 15.2636 10.4503 14.7395 10.1893 14.2076H10.1522C9.9542 14.6902 9.73144 15.1357 9.39732 15.7792L8.56819 17.4375H6.82332L9.29832 13.2176L6.92232 9.09674H8.66607L9.57057 10.8169C9.84282 11.3366 10.0408 11.745 10.2636 12.2152H10.2883C10.5111 11.6955 10.6843 11.3242 10.9442 10.8169L11.8352 9.09674H13.5789L11.1422 13.1681Z" fill="white"/>
</svg>
